<svg width="134" height="134" viewBox="0 0 134 134" fill="none" xmlns="http://www.w3.org/2000/svg">
<rect width="134" height="134" rx="15" fill="#EFF7F7"/>
<path d="M35 105V50.3L33 40.3L35 34.2H64.8C69.6 34.2 74.2 34.6667 78.6 35.6C83.0667 36.4667 87.0333 38.1333 90.5 40.6C94.0333 43.0667 96.8 46.6 98.8 51.2C100.867 55.8 101.9 61.7667 101.9 69.1C101.9 76.4333 100.867 82.4667 98.8 87.2C96.7333 91.8667 93.9333 95.5 90.4 98.1C86.8667 100.7 82.8667 102.5 78.4 103.5C74 104.5 69.4667 105 64.8 105H35ZM53.2 89H64.8C70.6667 89 75.1667 87.4667 78.3 84.4C81.4333 81.2667 83 76.1667 83 69.1C83 62.0333 81.4 57.1333 78.2 54.4C75.0667 51.6 70.6 50.2 64.8 50.2H53.2V89Z" fill="#101720"/>
<path d="M109.034 110.607L96.0195 102.085L104.542 89.0705L117.556 97.5931L109.034 110.607Z" fill="#101720"/>
</svg>
